<?xml version="1.0" encoding="UTF-8" standalone="no"?>
<svg
   viewBox="0 0 136.69163 219.86742"
   width="136.69164"
   height="219.86742"
   version="1.1"
   id="svg79"
   sodipodi:docname="HF surface.svg"
   inkscape:version="1.3.2 (091e20e, 2023-11-25, custom)"
   xmlns:inkscape="http://www.inkscape.org/namespaces/inkscape"
   xmlns:sodipodi="http://sodipodi.sourceforge.net/DTD/sodipodi-0.dtd"
   xmlns="http://www.w3.org/2000/svg"
   xmlns:svg="http://www.w3.org/2000/svg">
  <sodipodi:namedview
     id="namedview79"
     pagecolor="#ffffff"
     bordercolor="#000000"
     borderopacity="0.25"
     inkscape:showpageshadow="2"
     inkscape:pageopacity="0.0"
     inkscape:pagecheckerboard="0"
     inkscape:deskcolor="#d1d1d1"
     showgrid="false"
     inkscape:zoom="2.9255612"
     inkscape:cx="45.803177"
     inkscape:cy="75.028339"
     inkscape:window-width="2560"
     inkscape:window-height="1346"
     inkscape:window-x="1909"
     inkscape:window-y="207"
     inkscape:window-maximized="1"
     inkscape:current-layer="svg79" />
  <desc
     id="desc1">HF surface moulding - flattened HF surface.dxf - scale = 1.000000, origin = (0.000000, 0.000000), method = file</desc>
  <defs
     id="defs4">
    <marker
       id="DistanceX"
       orient="auto"
       refX="0"
       refY="0"
       style="overflow:visible">
      <path
         d="M 3,-3 -3,3 M 0,-5 V 5"
         style="stroke:#000000;stroke-width:0.5"
         id="path1" />
    </marker>
    <pattern
       id="Hatch"
       patternUnits="userSpaceOnUse"
       width="8"
       height="8"
       x="0"
       y="0">
      <path
         d="M8 4 l-4,4"
         stroke="#000000"
         stroke-width="0.25"
         linecap="square"
         id="path2" />
      <path
         d="M6 2 l-4,4"
         stroke="#000000"
         stroke-width="0.25"
         linecap="square"
         id="path3" />
      <path
         d="M4 0 l-4,4"
         stroke="#000000"
         stroke-width="0.25"
         linecap="square"
         id="path4" />
    </pattern>
    <symbol
       id="*MODEL_SPACE" />
    <symbol
       id="*PAPER_SPACE" />
  </defs>
  <g
     id="g1"
     transform="translate(-27.362321,-63.026601)">
    <path
       style="fill:none;stroke:#000000"
       d="m 47.300136,170.63402 v -49.37"
       id="path39" />
    <path
       style="fill:none;stroke:#000000"
       d="m 47.300136,121.26402 h 29.0579"
       id="path40" />
    <path
       style="fill:none;stroke:#000000"
       d="m 76.358036,170.63402 v -49.37"
       id="path41" />
    <path
       style="fill:none;stroke:#000000"
       d="m 47.300136,170.63402 h 29.0579"
       id="path42" />
    <path
       style="fill:none;stroke:#000000"
       d="m 47.300136,266.62402 v -47.01"
       id="path43" />
    <path
       style="fill:none;stroke:#000000"
       d="m 47.300136,219.61402 h 29.0579"
       id="path44" />
    <path
       style="fill:none;stroke:#000000"
       d="m 76.358036,266.62402 v -47.01"
       id="path45" />
    <path
       style="fill:none;stroke:#000000"
       d="m 47.300136,266.62402 h 29.0579"
       id="path46" />
    <path
       d="m 91.173234,83.886289 a 6.4244441,6.7188081 0 0 0 -12.848888,0 6.4244441,6.7188081 0 0 0 12.848888,0 z"
       style="fill:none;stroke:#000000;stroke-width:1.02253"
       id="path47" />
    <path
       d="m 91.172703,271.80892 a 6.425197,6.425197 0 0 0 -12.850394,0 6.425197,6.425197 0 0 0 12.850394,0 z"
       style="fill:none;stroke:#000000"
       id="path48" />
    <path
       d="m 45.251443,271.80892 a 6.425197,6.425197 0 0 0 -12.850394,0 6.425197,6.425197 0 0 0 12.850394,0 z"
       style="fill:none;stroke:#000000"
       id="path49" />
    <path
       d="m 45.257355,83.886289 a 6.4244441,6.7188081 0 0 0 -12.848888,0 6.4244441,6.7188081 0 0 0 12.848888,0 z"
       style="fill:none;stroke:#000000;stroke-width:1.02253"
       id="path50" />
    <path
       d="m 113.09192,83.886289 a 6.4244441,6.7188081 0 0 0 -12.84888,0 6.4244441,6.7188081 0 0 0 12.84888,0 z"
       style="fill:none;stroke:#000000;stroke-width:1.02253"
       id="path51" />
    <path
       d="m 159.0078,83.886289 a 6.4244441,6.7188081 0 0 0 -12.84888,0 6.4244441,6.7188081 0 0 0 12.84888,0 z"
       style="fill:none;stroke:#000000;stroke-width:1.02253"
       id="path52" />
    <path
       d="m 113.09396,271.80892 a 6.425197,6.425197 0 0 0 -12.85039,0 6.425197,6.425197 0 0 0 12.85039,0 z"
       style="fill:none;stroke:#000000"
       id="path53" />
    <path
       d="m 159.01522,271.80892 a 6.425197,6.425197 0 0 0 -12.85039,0 6.425197,6.425197 0 0 0 12.85039,0 z"
       style="fill:none;stroke:#000000"
       id="path54" />
    <path
       style="fill:none;stroke:#000000"
       d="m 144.11614,266.62402 v -47.01"
       id="path55" />
    <path
       style="fill:none;stroke:#000000"
       d="m 144.11614,266.62402 h -29.0579"
       id="path56" />
    <path
       style="fill:none;stroke:#000000"
       d="m 115.05824,266.62402 v -47.01"
       id="path57" />
    <path
       style="fill:none;stroke:#000000"
       d="m 144.11614,219.61402 h -29.0579"
       id="path58" />
    <path
       style="fill:none;stroke:#000000"
       d="m 144.11614,170.63402 v -49.37"
       id="path59" />
    <path
       style="fill:none;stroke:#000000"
       d="m 144.11614,170.63402 h -29.0579"
       id="path60" />
    <path
       style="fill:none;stroke:#000000"
       d="m 115.05824,170.63402 v -49.37"
       id="path61" />
    <path
       style="fill:none;stroke:#000000"
       d="m 144.11614,121.26402 h -29.0579"
       id="path62" />
    <path
       style="fill:none;stroke:#000000"
       d="m 110.23704,219.61402 v -47.28"
       id="path63" />
    <path
       style="fill:none;stroke:#000000"
       d="M 110.23704,219.61402 H 81.179236"
       id="path64" />
    <path
       style="fill:none;stroke:#000000"
       d="m 81.179236,219.61402 v -47.28"
       id="path65" />
    <path
       style="fill:none;stroke:#000000"
       d="M 110.23704,172.33402 H 81.179236"
       id="path66" />
    <path
       style="fill:none;stroke:#000000"
       d="M 163.55064,282.39402 H 27.865636"
       id="path67" />
    <path
       style="fill:none;stroke:#000000;stroke-width:1.02253"
       d="M 163.54269,282.40221 V 63.537866"
       id="path68" />
    <path
       style="fill:none;stroke:#000000;stroke-width:1.02253"
       d="M 163.54269,63.537866 H 27.873586"
       id="path69" />
    <path
       style="fill:none;stroke:#000000;stroke-width:1.02253"
       d="M 27.873586,282.40221 V 63.537866"
       id="path70" />
  </g>
</svg>
